<svg id="Capa_1" data-name="Capa 1" xmlns="http://www.w3.org/2000/svg" viewBox="0 0 100 100"><defs><style>.cls-1{fill:#73374b;fill-rule:evenodd;}</style></defs><path class="cls-1" d="M83.41,19.32,80.58,59.79a21.27,21.27,0,0,1,5.31-.87v-1.6a.76.76,0,0,1,.19-.63c.58-.78.22-1-.33-1.48a3.41,3.41,0,0,1,.25-5c.38-.27.34-.38,0-.69a1.94,1.94,0,0,1-.62-1.42,2.4,2.4,0,0,1,4.77,0,1.94,1.94,0,0,1-.62,1.42c-.32.31-.36.42,0,.69a3,3,0,0,1,1,1.31l8-.63c2.34-.13,2.34,4.08,0,4l-7.94-.63a3.4,3.4,0,0,1-.74,1c-.55.5-.92.7-.34,1.48a.76.76,0,0,1,.19.63v1.77a9.78,9.78,0,0,1,3.3,1c1.41.77,1.72,1,3.36.28A1.74,1.74,0,0,1,98.73,62v2.27a1.74,1.74,0,0,1-2.39,1.62c-1.64-.69-2-.49-3.36.29a10,10,0,0,1-3.3,1V69H85.89V67.35a20.09,20.09,0,0,1-5.77-1l-.45,6.48a2.29,2.29,0,0,1-2.38,2.07l-8.37-.09,4.13-58.91L81.34,17a2.28,2.28,0,0,1,2.07,2.37ZM38.65,2a1.73,1.73,0,0,1,1.73,1.72V5.79c0,1.18-1.74,1-1.74,3.31v2.28l29.51,3.85L64,74.73l-48.88-.48L19.68,8.9l13.45,1.76V9.1c0-2.32-1.74-2.13-1.74-3.31V3.72A1.72,1.72,0,0,1,33.11,2ZM16.48,82.43H62.34v-6h7.17V98H62.34V88.07H16.48V98H9.31V76.39h7.17v6Zm-6.3-8.23-8.37-.08A2.21,2.21,0,0,1-.26,71.74Q1.93,40.49,4.11,9.25A2.21,2.21,0,0,1,6.49,7.18l8.3,1.09Z"/></svg>