<svg id="Capa_1" data-name="Capa 1" xmlns="http://www.w3.org/2000/svg" viewBox="0 0 100 100"><defs><style>.cls-1{fill:#73374b;fill-rule:evenodd;}</style></defs><path class="cls-1" d="M26.21,8.23a.08.08,0,0,0,.09-.09V7.37A.42.42,0,0,1,26.72,7h6.86a.42.42,0,0,1,.43.42v.77c0,.06,0,.09.08.09a.24.24,0,0,1,.24.24v1.68a.24.24,0,0,1-.24.24c-.05,0-.08,0-.08.08v2.77a80.89,80.89,0,0,0,1.45,15.92c1,4.24,1.33,5.51,4,12.59a51,51,0,0,1,3.25,19.34V92.8a4.09,4.09,0,0,1-4.08,4.07h-17A4.08,4.08,0,0,1,17.6,92.8V61.09a51,51,0,0,1,3.24-19.34c2.67-7.08,3-8.35,4-12.59A80.89,80.89,0,0,0,26.3,13.24V10.47c0-.06,0-.08-.09-.08a.24.24,0,0,1-.24-.24V8.47A.24.24,0,0,1,26.21,8.23Z"/><path class="cls-1" d="M65.91,8.23c.06,0,.08,0,.08-.09V7.37A.42.42,0,0,1,66.42,7h6.86a.42.42,0,0,1,.42.42v.77c0,.06,0,.09.08.09a.25.25,0,0,1,.25.24v1.68a.25.25,0,0,1-.25.24s-.08,0-.08.08v2.77a80.89,80.89,0,0,0,1.46,15.92c1,4.24,1.33,5.51,4,12.59A51,51,0,0,1,82.4,61.09V92.8a4.08,4.08,0,0,1-4.07,4.07h-17a4.09,4.09,0,0,1-4.08-4.07V61.09a51,51,0,0,1,3.25-19.34c2.67-7.08,3-8.35,4-12.59A80.89,80.89,0,0,0,66,13.24V10.47c0-.06,0-.08-.08-.08a.25.25,0,0,1-.25-.24V8.47A.25.25,0,0,1,65.91,8.23Z"/><path class="cls-1" d="M45.62,1.42c.06,0,.09,0,.09-.1V.47A.47.47,0,0,1,46.18,0h7.64a.48.48,0,0,1,.47.47v.85c0,.08,0,.1.09.1a.27.27,0,0,1,.27.27V3.56a.27.27,0,0,1-.27.27c-.06,0-.09,0-.09.08V7A90.61,90.61,0,0,0,55.9,24.71c1.1,4.71,1.49,6.12,4.45,14C63.16,46.14,64,52.43,64,60.21V95.47A4.55,4.55,0,0,1,59.43,100H40.57A4.55,4.55,0,0,1,36,95.47V60.21c0-7.78.8-14.07,3.61-21.5,3-7.88,3.35-9.29,4.45-14A90.61,90.61,0,0,0,45.71,7V3.91c0-.05,0-.08-.09-.08a.27.27,0,0,1-.27-.27V1.69A.27.27,0,0,1,45.62,1.42Z"/></svg>