<svg id="Capa_1" data-name="Capa 1" xmlns="http://www.w3.org/2000/svg" viewBox="0 0 100 100"><defs><style>.cls-1{fill:#73374b;fill-rule:evenodd;}</style></defs><path class="cls-1" d="M50,100H37.82a.67.67,0,0,1-.66-.66V60.82c0-2-.56-2.48-1.29-2.9a6.13,6.13,0,0,1-1.55-1.3c-1.88,1-2.86,3.57-3.73,5.33-3.41,7-18.52,36.6-18.73,37s-.51.55-1.16.36a8.06,8.06,0,0,1-2.56-1.4,1,1,0,0,1-.06-1.24c.21-.47,17.33-35,18.21-36.75a17.45,17.45,0,0,1,6.1-6.74,11.63,11.63,0,0,1-.68-3.79,9.14,9.14,0,0,1,9.41-9.14h5.55V38.39a.31.31,0,0,1,.3-.3h1.47V35.15H47a.3.3,0,0,1-.3-.29V33.14a.3.3,0,0,1,.3-.29h1.47v-3H47a.3.3,0,0,1-.3-.29V27.9a.31.31,0,0,1,.3-.3h1.47V25.16h-.71c-1,0-1.36-.49-1.21-1.3l1.07-5.77c-5.81-.82-10.2-4.52-10.2-9C37.39,4.09,43,0,50,0S62.61,4.09,62.61,9.13c0,4.44-4.39,8.14-10.2,9l1.07,5.77c.15.81-.24,1.3-1.21,1.3h-.71V27.6H53a.3.3,0,0,1,.3.3v1.71a.29.29,0,0,1-.3.29H51.56v3H53a.29.29,0,0,1,.3.29v1.72a.29.29,0,0,1-.3.29H51.56v2.94H53a.31.31,0,0,1,.3.3v1.89h5.55a9.14,9.14,0,0,1,9.41,9.14,11.63,11.63,0,0,1-.68,3.79A17.55,17.55,0,0,1,73.72,60c.87,1.71,18,36.28,18.2,36.75a1,1,0,0,1-.06,1.24,8.06,8.06,0,0,1-2.56,1.4c-.65.19-.93.1-1.16-.36S72.82,68.9,69.4,62c-.86-1.76-1.84-4.34-3.72-5.33a6.13,6.13,0,0,1-1.55,1.3c-.73.42-1.29.93-1.29,2.9V99.34a.67.67,0,0,1-.66.66Zm-.79-25v-5.3H48.12l-.3-7.86h-.76a.24.24,0,0,1-.23-.23V60.56a.23.23,0,0,1,.23-.23h.44v-.87a9.19,9.19,0,0,0-6.66,8.81V92.45a.82.82,0,0,0,.82.82h6.6a15.55,15.55,0,0,1,3.14-1.52,19.63,19.63,0,0,1-3.08-1.53c-.76-.59-.37-1.5.25-2a20.59,20.59,0,0,1,2.82-1.43c-1-.79-2.26-.77-3.33-2.09a2.47,2.47,0,0,1,0-2.32c.36-.77,1.09-2.23,1.39-2.86a3.22,3.22,0,0,0,.14-2.08A7.09,7.09,0,0,1,49.21,75Zm2.22,18.23h6.91a.82.82,0,0,0,.82-.82V68.27a9.19,9.19,0,0,0-6.66-8.81v.87h.44a.23.23,0,0,1,.23.23v1.09a.24.24,0,0,1-.23.23h-.75v7.86h-1.4v4.9a24.36,24.36,0,0,0,.38,2.89,5.65,5.65,0,0,1-.41,3c-.46,1.14-.9,2-1.13,2.41s-.33,1,.31,1.19a17.37,17.37,0,0,1,2.41,1.08,1.68,1.68,0,0,1,.28,2.89,8,8,0,0,1-2,1c-.21.06-.37.23-.15.29a6.77,6.77,0,0,1,2.34,1.13c.58.4,1.07,1,.4,1.63A8.54,8.54,0,0,1,51.43,93.27Z"/></svg>