<svg id="Capa_1" data-name="Capa 1" xmlns="http://www.w3.org/2000/svg" viewBox="0 0 100 100"><defs><style>.cls-1{fill:#73374b;fill-rule:evenodd;}</style></defs><path class="cls-1" d="M36.19,19.48A9.92,9.92,0,0,1,41,18.22a9.28,9.28,0,0,1,1.06.06,12.57,12.57,0,0,1,1.58-1.94c-5,1.42-7.82-.93-8.35-3.73C34.62,8.86,37,5.27,40.9,5.74c5.15.62,4.63,6.69.61,7.29-1.35.2-3-1.14-1.48-2.34-.34,1.16,1.7,1.76,2.6.44a2.33,2.33,0,0,0-1.81-3.72c-5.69-.71-5.61,11.06,3.84,7C50.63,11.85,49.78,2.21,41,2c0,0-.62-2,1.48-2,6.76,0,9.83,6.06,8.85,12a8.73,8.73,0,0,1,11.41,3.63,9.83,9.83,0,0,1,12.45,14.7h.35a8.24,8.24,0,0,1,2.34,16.14,7.88,7.88,0,0,1,2,5.21,8.09,8.09,0,0,1-.66,3.19A10,10,0,0,1,76.76,70.3,8,8,0,0,1,69.39,81a9.66,9.66,0,0,1-4.19,6.92,8.77,8.77,0,1,1-16.9,3.29A8.66,8.66,0,0,1,48.39,90a10.53,10.53,0,1,1-15.62-14.1A10.53,10.53,0,0,1,21.54,59.34a7.1,7.1,0,0,1-1-8.24,11,11,0,0,1,3.55-19.22,8.67,8.67,0,1,1,12.13-12.4Zm8-.76a9.64,9.64,0,0,1,2.18,1,8.65,8.65,0,0,1,.9-3.73,39.55,39.55,0,0,0-3.08,2.71ZM33.6,37.52a8.8,8.8,0,0,1-14.33,9.61A8.63,8.63,0,1,0,33.6,37.52Zm40.77.62a7.07,7.07,0,0,1,.52,2.65,6.93,6.93,0,0,1-11.81,4.92,6.8,6.8,0,1,0,11.29-7.57Zm3.88,19.39a8,8,0,0,1-13,8.72,7.83,7.83,0,1,0,13-8.72ZM54,61a8.58,8.58,0,0,1-7.94,11.86,8.53,8.53,0,0,1-6-2.49A8.42,8.42,0,1,0,54,61ZM65.61,76.1a7,7,0,0,1,.52,2.63A6.87,6.87,0,0,1,54.42,83.6a6.74,6.74,0,1,0,11.19-7.5ZM46.38,79.66A7.56,7.56,0,0,1,47,82.6a7.68,7.68,0,0,1-13.09,5.45,7.53,7.53,0,1,0,12.51-8.39ZM60,16.77A5.83,5.83,0,0,1,60.48,19a5.88,5.88,0,0,1-10,4.17A5.76,5.76,0,1,0,60,16.77Zm-13.1,8.36a6.44,6.44,0,0,1-10.49,7,6.31,6.31,0,1,0,10.49-7ZM51.66,50c3.74,5.72,10.48,2.19,10.14-1.42A6.44,6.44,0,0,1,51.66,50ZM23.52,70.16c4,6.16,12.91,3.53,13-1.63-3,4.3-9.32,5.29-13,1.63ZM63.75,90.08h-.66A6.87,6.87,0,0,1,51.4,94.42a6.74,6.74,0,0,0,12.38-3.68Q63.78,90.41,63.75,90.08Z"/></svg>