<svg id="Capa_1" data-name="Capa 1" xmlns="http://www.w3.org/2000/svg" viewBox="0 0 100 100"><defs><style>.cls-1{fill:#a6218c;}</style></defs><path class="cls-1" d="M22.62,94.26s-1.18-7.57-1.56-8.5a24.79,24.79,0,0,0-9.24-1.93c-6-.11-9.23,1.93-9.23,1.93-.38.93-1.57,8.5-1.57,8.5S4.68,98,11.68,98A16.9,16.9,0,0,0,22.62,94.26Z"/><path class="cls-1" d="M8,79.13c.68,2.05,1.89,3.47,3.86,3.47S15,81.18,15.7,79.13c.59,0,1-.62,1.29-1.51.42-1.37,0-1.85-.63-2v0h0a8.46,8.46,0,0,0-.12-3,1,1,0,0,0-.84-.77c-.61-1.15-2.14-1.5-3-1.69-4-.93-4.07,1.59-4.07,1.59h0a.89.89,0,0,0-1.09.89,21.33,21.33,0,0,0,0,3h0v0c-.6.17-1,.65-.63,2C6.93,78.51,7.36,79.17,8,79.13Z"/><path class="cls-1" d="M46.49,94.26s-1.19-7.57-1.56-8.5a24.79,24.79,0,0,0-9.24-1.93c-6-.11-9.23,1.93-9.23,1.93-.38.93-1.57,8.5-1.57,8.5S28.55,98,35.55,98A16.9,16.9,0,0,0,46.49,94.26Z"/><path class="cls-1" d="M30.53,77.62c.27.89.69,1.55,1.29,1.51.69,2.05,1.9,3.47,3.87,3.47s3.18-1.42,3.87-3.47c.6,0,1-.62,1.3-1.51.42-1.37,0-1.85-.64-2a.06.06,0,0,0,0,0h0a8.54,8.54,0,0,0-.13-3,1,1,0,0,0-.83-.77c-.62-1.15-2.15-1.5-3-1.69-4-.93-4.07,1.59-4.07,1.59h0a.89.89,0,0,0-1.09.89,21.33,21.33,0,0,0,0,3h0v0C30.56,75.77,30.1,76.25,30.53,77.62Z"/><path class="cls-1" d="M55.07,85.63c-.37.94-1.56,8.52-1.56,8.52s3.65,3.69,10.66,3.73a17,17,0,0,0,10.94-3.73s-1.19-7.58-1.57-8.52a24.93,24.93,0,0,0-9.23-1.93C58.3,83.6,55.07,85.63,55.07,85.63Z"/><path class="cls-1" d="M59.14,77.5c.28.89.7,1.54,1.3,1.51.69,2,1.89,3.46,3.87,3.46s3.18-1.41,3.87-3.47c.6,0,1-.61,1.29-1.5.43-1.37,0-1.85-.63-2v0h0a8.6,8.6,0,0,0-.13-3,1,1,0,0,0-.83-.77c-.62-1.14-2.15-1.49-3-1.68-4-.94-4.08,1.59-4.08,1.59h0a.89.89,0,0,0-1.09.89,20.74,20.74,0,0,0,0,3h0a0,0,0,0,0,0,0C59.17,75.65,58.72,76.13,59.14,77.5Z"/><path class="cls-1" d="M99,94.15s-1.19-7.58-1.57-8.52a25,25,0,0,0-9.23-1.93c-6-.1-9.24,1.93-9.24,1.93-.38.94-1.56,8.52-1.56,8.52S81,97.84,88,97.88A17,17,0,0,0,99,94.15Z"/><path class="cls-1" d="M84.31,79c.69,2,1.89,3.46,3.87,3.46S91.36,81.06,92,79c.6,0,1-.61,1.3-1.5.42-1.37,0-1.85-.63-2v0h0a8.51,8.51,0,0,0-.12-3,1,1,0,0,0-.83-.77c-.62-1.14-2.16-1.49-3-1.68-4-.94-4.07,1.59-4.07,1.59h0a.89.89,0,0,0-1.09.89,20.74,20.74,0,0,0,0,3h0v0c-.6.17-1,.65-.63,2C83.29,78.39,83.71,79,84.31,79Z"/><polygon class="cls-1" points="38.56 53.83 38.56 64.67 61.44 64.67 61.44 53.83 65.41 53.83 70.96 38.96 50 38.96 29.04 38.96 34.59 53.83 38.56 53.83"/><path class="cls-1" d="M62.87,25.28l-7.49-2.7-3,10.4-1.45-7.42,1.34-3H47.77l1.34,3L47.66,33l-3-10.4-7.49,2.7c-.53,1.29-2.19,12.12-2.19,12.12H65.26S63.39,26.57,62.87,25.28Z"/><path class="cls-1" d="M44.61,14.93c1,2.84,2.64,4.79,5.39,4.79s4.42-1.95,5.39-4.79c.84.06,1.43-.89,1.81-2.15.58-1.9,0-2.57-.88-2.82,0,0,0,0,0,0a12.11,12.11,0,0,0-.17-4.22A1.43,1.43,0,0,0,55,4.63c-.87-1.6-3-2.08-4.14-2.34C45.25,1,45.18,4.5,45.18,4.5h0a1.24,1.24,0,0,0-1.51,1.25,28.21,28.21,0,0,0,0,4.17.06.06,0,0,1,0,0c-.84.25-1.47.92-.88,2.82C43.18,14,43.77,15,44.61,14.93Z"/></svg>