<svg id="Capa_1" data-name="Capa 1" xmlns="http://www.w3.org/2000/svg" viewBox="0 0 100 100"><defs><style>.cls-1{fill:#a6218c;}</style></defs><path class="cls-1" d="M77.77,72.86a4.69,4.69,0,0,1,4.48,4.86v3.87H68.73V77.72a4.69,4.69,0,0,1,4.47-4.86ZM15.23,77.72a4.69,4.69,0,0,0-4.47-4.86H6.19a4.69,4.69,0,0,0-4.48,4.86v3.87H15.23ZM58.46,50.16H42.25v16H58.46ZM97.38,61.51H65v.12H61.71V48.74l2.07-8.31H43.58l-1.15-5.74,5.31-3.54-1.8-2.7L38.82,33.2l1.45,7.23H36.93L39,48.74V61.63H35.76v-.12H3.34V6.38h94ZM94.14,9.62H6.58V58.27H35.22V55H9.82V12.87H90.89V55H65.49v3.25H94.14ZM74.68,19.35V16.11H71.44v3.24Zm6.48,0V16.11H77.92v3.24Zm6.49,0V16.11H84.41v3.24ZM22.94,72.86a4.68,4.68,0,0,0-4.47,4.86v3.87H32V77.72a4.69,4.69,0,0,0-4.47-4.86Zm71.59,0H90a4.68,4.68,0,0,0-4.47,4.86v3.87H99V77.72A4.69,4.69,0,0,0,94.53,72.86Zm-29,4.86A4.68,4.68,0,0,0,61,72.86H56.45A4.68,4.68,0,0,0,52,77.72v3.87H65.49Zm-30.27,0v3.87H48.73V77.72a4.68,4.68,0,0,0-4.47-4.86H39.69A4.69,4.69,0,0,0,35.22,77.72ZM13.5,89.07H6.79a5,5,0,0,0-5.08,4.87V100H18.58V93.94A5,5,0,0,0,13.5,89.07Zm20.1,0H26.9a5,5,0,0,0-5.08,4.87V100H38.68V93.94A5,5,0,0,0,33.6,89.07Zm20.11,0H47a5,5,0,0,0-5.09,4.87V100H58.79V93.94A5,5,0,0,0,53.71,89.07Zm40.21,0h-6.7a5,5,0,0,0-5.08,4.87V100H99V93.94A5,5,0,0,0,93.92,89.07Zm-20.11,0h-6.7A5,5,0,0,0,62,93.94V100H78.89V93.94A5,5,0,0,0,73.81,89.07ZM97.38-.11h-94A1.63,1.63,0,0,0,1.71,1.52V3.14H99V1.52A1.63,1.63,0,0,0,97.38-.11Zm-38.56,47,.81-3.25H41.08l.07.26.74,3Z"/></svg>