<svg id="Capa_1" data-name="Capa 1" xmlns="http://www.w3.org/2000/svg" viewBox="0 0 100 100"><g id="B195_Business_Shop_Dollar_Money" data-name="B195, Business, Shop, Dollar, Money"><path d="M63.61,51.05a5.55,5.55,0,0,0,5.56-5.5V33.32H57.87V45.55A5.83,5.83,0,0,0,63.61,51.05Z"/><path d="M50.15,51.05a5.55,5.55,0,0,0,5.56-5.5V33.32H44.41V45.55A5.84,5.84,0,0,0,50.15,51.05Z"/><path d="M36.7,51.05a5.55,5.55,0,0,0,5.56-5.5V33.32H31V45.55A5.83,5.83,0,0,0,36.7,51.05Z"/><path d="M15.35,45.55V33.32H4V45.55a5.56,5.56,0,0,0,5.57,5.5A5.71,5.71,0,0,0,15.35,45.55Z"/><path d="M23.24,51.05a5.55,5.55,0,0,0,5.56-5.5V33.32H17.5V45.55A5.84,5.84,0,0,0,23.24,51.05Z"/><path d="M77.06,51.05a5.55,5.55,0,0,0,5.56-5.5V33.32H71.32V45.55A5.84,5.84,0,0,0,77.06,51.05Z"/><path d="M39.75,5.83c-.72,0-1.08.35-1.08.89a.65.65,0,0,0,.18.53c.18.17.36.17.72.35V5.83Z"/><path d="M92.85,9a3.39,3.39,0,0,0,3.41-3.37,3.41,3.41,0,0,0-6.82,0A3.28,3.28,0,0,0,92.85,9Z"/><path d="M41.72,11.15c0-.18-.18-.53-.36-.53a1.37,1.37,0,0,0-.9-.36V12C41.36,11.86,41.72,11.68,41.72,11.15Z"/><path d="M31.13,99.82H49.07V66.66H31.13ZM44.59,92.2a1.08,1.08,0,0,1-2.15,0V89.89a1.08,1.08,0,0,1,2.15,0Zm-7.89-19a1.07,1.07,0,1,1,0-2.13h6.81a1.15,1.15,0,0,1,1.08,1.07V83.33a1.15,1.15,0,0,1-1.08,1.06H36.7a1.06,1.06,0,1,1,0-2.12h5.56V73.4H36.7Z"/><path d="M34.36,15.94a9.07,9.07,0,0,0,3.41,1.77h.36c.18,0,.54.18.72.18h1.08a10.54,10.54,0,0,0,2.33-.36,8.93,8.93,0,0,0,3.41-1.77,9,9,0,0,0,3.4-6.92,9,9,0,0,0-17.94,0A9.5,9.5,0,0,0,34.36,15.94Zm4.85-6.21A8.86,8.86,0,0,1,38,9.2a4.35,4.35,0,0,1-.9-.53c-.17-.18-.35-.54-.53-.71a2.24,2.24,0,0,1-.18-1.07,3.88,3.88,0,0,1,.18-1.42,3.86,3.86,0,0,1,.71-1.06,3.94,3.94,0,0,1,1.08-.71c.36-.18.9-.18,1.26-.35V1.93h1.07V3.35a5.33,5.33,0,0,1,1.8.35,10.57,10.57,0,0,1,1.43.71l-1.07,2-.18-.18c-.18,0-.36-.17-.54-.35s-.54-.18-.72-.36a1.41,1.41,0,0,0-.9-.17v2l.54.17a4.24,4.24,0,0,0,1.44.36l1.07.53a1.77,1.77,0,0,1,.72.89,2.58,2.58,0,0,1,.18,1.24,3.34,3.34,0,0,1-.36,1.42,4.08,4.08,0,0,1-.72.89l-1.07.53a3.23,3.23,0,0,1-1.26.17v1.6H39.93V13.28a7.66,7.66,0,0,1-2-.36A5.54,5.54,0,0,1,36.16,12l1.07-2.13a.63.63,0,0,0,.36.18c.18.17.36.17.72.35.18.18.54.18.9.35a2.26,2.26,0,0,0,1.07.18v-.88Z"/><path d="M9.79,22.32a3.37,3.37,0,1,0,0-6.74A3.51,3.51,0,0,0,6.38,19,3.5,3.5,0,0,0,9.79,22.32Z"/><path d="M30.06,31.19H94.28L78.85,17.89H46.74a.18.18,0,0,0-.18.18l-.18.17a.18.18,0,0,0-.18.18L46,18.6s-.18,0-.18.17a.18.18,0,0,0-.18.18.18.18,0,0,0-.18.18.18.18,0,0,0-.18.18s-.18,0-.18.17a.18.18,0,0,0-.18.18h-.18a.18.18,0,0,0-.18.18H36.7a.18.18,0,0,1-.18-.18h-.18a.18.18,0,0,1-.18-.18s-.18,0-.18-.17a.18.18,0,0,1-.18-.18.18.18,0,0,1-.18-.18.18.18,0,0,1-.18-.18s-.18,0-.18-.17l-.18-.18a.18.18,0,0,1-.18-.18l-.18-.17a.18.18,0,0,1-.18-.18H22.7L7.27,31.19H30.06Z"/><path d="M90.88,53.36h-2a.66.66,0,0,1-.54-.18h-.18c-.18,0-.18,0-.35-.18h-.18c-.18,0-.18,0-.36-.17h0a.63.63,0,0,1-.36-.18h-.18c-.18,0-.18-.18-.36-.18h-.18c-.18,0-.18-.18-.36-.18h0c-.18,0-.18-.17-.36-.17h0c-.18,0-.18-.18-.36-.18L85,51.76l-.17-.18h0l-.36-.35h0a.63.63,0,0,1-.18-.36V50.7l-.18-.18v-.18c0-.17-.18-.17-.18-.35h0c0,.18-.18.18-.18.35v.18a.18.18,0,0,1-.18.18v.17c0,.18-.18.18-.18.36h0l-.36.35h0l-.18.18-.18.18a.63.63,0,0,1-.36.18h0c-.18.17-.18.17-.36.17h0c-.17,0-.17.18-.35.18h-.18c-.18,0-.18.18-.36.18h-.18a.63.63,0,0,0-.36.18h0c-.18,0-.18.17-.36.17h-.18c-.18,0-.18,0-.36.18h-.18a.67.67,0,0,0-.54.18H75.63a.66.66,0,0,1-.54-.18h-.18c-.18,0-.18,0-.36-.18h-.18c-.18,0-.18,0-.36-.17h0a.63.63,0,0,1-.36-.18h-.18c-.18,0-.18-.18-.36-.18h-.17c-.18,0-.18-.18-.36-.18h0c-.18,0-.18-.17-.36-.17h0c-.18,0-.18-.18-.36-.18l-.18-.18-.18-.18h0l-.36-.35h0a.63.63,0,0,1-.18-.36V50.7l-.18-.18v-.18c0-.17-.18-.17-.18-.35h0c0,.18-.18.18-.18.35v.18a.18.18,0,0,1-.18.18v.17c0,.18-.18.18-.18.36h0l-.35.35h0l-.18.18-.18.18a.63.63,0,0,1-.36.18h0c-.18.17-.18.17-.36.17h0c-.18,0-.18.18-.36.18h-.18c-.18,0-.18.18-.36.18h-.18a.63.63,0,0,0-.36.18h0c-.18,0-.18.17-.35.17h-.18c-.18,0-.18,0-.36.18h-.18a.66.66,0,0,0-.54.18H62.35a.66.66,0,0,1-.54-.18h-.18c-.18,0-.18,0-.36-.18h-.18c-.17,0-.17,0-.35-.17h0a.63.63,0,0,1-.36-.18H60.2c-.18,0-.18-.18-.36-.18h-.18c-.18,0-.18-.18-.36-.18h0c-.18,0-.18-.17-.36-.17h0c-.18,0-.18-.18-.36-.18l-.18-.18-.18-.18h0l-.35-.35h0a.63.63,0,0,1-.18-.36V50.7l-.18-.18v-.18c0-.17-.18-.17-.18-.35h0c0,.18-.18.18-.18.35v.18a.18.18,0,0,1-.18.18v.17c0,.18-.18.18-.18.36h0l-.36.35h0l-.18.18-.18.18a.63.63,0,0,1-.36.18h0c-.18.17-.18.17-.36.17h0c-.18,0-.18.18-.35.18h-.18c-.18,0-.18.18-.36.18h-.18a.63.63,0,0,0-.36.18h0c-.18,0-.18.17-.36.17h-.18c-.18,0-.18,0-.36.18h-.18a.66.66,0,0,0-.54.18H49.08a.66.66,0,0,1-.54-.18h-.18c-.18,0-.18,0-.36-.18h-.18c-.18,0-.18,0-.36-.17h0a.63.63,0,0,1-.36-.18h-.18c-.18,0-.18-.18-.36-.18h-.18c-.18,0-.18-.18-.35-.18h0c-.18,0-.18-.17-.36-.17h0c-.18,0-.18-.18-.36-.18l-.18-.18L45,51.58h0l-.36-.35h0a.63.63,0,0,1-.18-.36V50.7l-.18-.18v-.18c0-.17-.18-.17-.18-.35h0c0,.18-.18.18-.18.35v.18a.18.18,0,0,1-.18.18v.17c0,.18-.18.18-.18.36h0l-.36.35h0l-.17.18-.18.18a.63.63,0,0,1-.36.18h0c-.18.17-.18.17-.36.17h0c-.18,0-.18.18-.36.18h-.18c-.18,0-.18.18-.36.18H41a.63.63,0,0,0-.36.18h0c-.18,0-.18.17-.36.17H40.1c-.17,0-.17,0-.35.18h-.18a.66.66,0,0,0-.54.18H35.8a.66.66,0,0,1-.54-.18h-.18c-.18,0-.18,0-.36-.18h-.18c-.18,0-.18,0-.36-.17h0a.59.59,0,0,1-.35-.18h-.18c-.18,0-.18-.18-.36-.18h-.18c-.18,0-.18-.18-.36-.18h0c-.18,0-.18-.17-.36-.17h0c-.18,0-.18-.18-.36-.18l-.18-.18-.18-.18h0l-.36-.35h0a.63.63,0,0,1-.18-.36V50.7L31,50.52v-.18c0-.17-.18-.17-.18-.35h0c0,.18-.18.18-.18.35v.18a.18.18,0,0,1-.18.18v.17c0,.18-.18.18-.18.36h0l-.36.35h0l-.18.18-.18.18a.63.63,0,0,1-.36.18h0c-.18.17-.18.17-.36.17h0c-.18,0-.18.18-.36.18h-.18c-.17,0-.17.18-.35.18h-.18a.63.63,0,0,0-.36.18h0c-.18,0-.18.17-.36.17h-.18c-.18,0-.18,0-.36.18h-.18a.66.66,0,0,0-.54.18H22.52a.63.63,0,0,1-.53-.18h-.18c-.18,0-.18,0-.36-.18h-.18c-.18,0-.18,0-.36-.17h0a.63.63,0,0,1-.36-.18h-.18c-.18,0-.18-.18-.36-.18h-.18c-.18,0-.18-.18-.36-.18h0c-.18,0-.18-.17-.36-.17h0c-.17,0-.17-.18-.35-.18l-.18-.18-.18-.18h0L18,51.23h0a.63.63,0,0,1-.18-.36V50.7l-.18-.18v-.18c0-.17-.18-.17-.18-.35h0c0,.18-.18.18-.18.35v.18a.18.18,0,0,1-.18.18v.17c0,.18-.18.18-.18.36h0l-.36.35h0l-.18.18-.18.18a.59.59,0,0,1-.35.18h0c-.18.17-.18.17-.36.17h0c-.18,0-.18.18-.36.18H15c-.18,0-.18.18-.36.18h-.18a.63.63,0,0,0-.36.18h0c-.18,0-.18.17-.36.17h-.18c-.18,0-.18,0-.36.18H13a.66.66,0,0,0-.54.18H9.79V91.13h7.89a1.07,1.07,0,1,1,0,2.13H9.79V100H30.06V65.59a1.15,1.15,0,0,1,1.07-1.06H51.41a1.14,1.14,0,0,1,1.07,1.06V91.13H91.23L74,74.11a1.31,1.31,0,0,1,0-1.6,1.37,1.37,0,0,1,1.62,0l17.22,17V53.18a13.47,13.47,0,0,1-2,.18ZM18.76,85.46H14.27V81h4.49V76.59H14.27V72.16h4.49V67.72H14.27V63.29h4.49V58.86h4.48v4.43H18.76v4.43h4.48v4.44H18.76v4.43h4.48V81H18.76ZM24,92.91a1.42,1.42,0,0,1-.72.35,1.42,1.42,0,0,1-.72-.35,1.37,1.37,0,0,1-.36-.71.9.9,0,0,1,.36-.71,1.36,1.36,0,0,1,.72-.36,1.36,1.36,0,0,1,.72.36,1.3,1.3,0,0,1,.36.71A.71.71,0,0,1,24,92.91ZM75.63,82.44A1.08,1.08,0,1,1,74.19,84L62.89,72.87a1.31,1.31,0,0,1,0-1.6,1.33,1.33,0,0,1,1.61,0Z"/><path d="M85,45.55a5.57,5.57,0,0,0,11.13,0V33.32H84.78V45.55Z"/><rect x="51.23" y="93.26" width="40.37" height="6.74"/></g></svg>