<svg id="Capa_1" data-name="Capa 1" xmlns="http://www.w3.org/2000/svg" viewBox="0 0 100 100"><defs><style>.cls-1{fill:#a6218c;}</style></defs><rect class="cls-1" x="62" y="20" width="30" height="16"/><rect class="cls-1" x="24" y="20" width="30" height="16"/><polygon class="cls-1" points="10.74 100 24.01 94.99 13.27 65.89 0 70.91 10.74 100"/><path class="cls-1" d="M28.82,55.29A24.54,24.54,0,0,1,40.42,52H54V40H28V55.78Z"/><path class="cls-1" d="M76,61v7.55l12-6.09V40H62V52h5A9,9,0,0,1,76,61Z"/><path class="cls-1" d="M99.21,65.85c-2.2-3.42-7-1-7-1L74,74H52a4,4,0,0,1-4-4v0a4,4,0,0,1,4-4H67a5,5,0,0,0,0-10H40.42a20.24,20.24,0,0,0-9.56,2.73L17.75,66.49,25,86H74.52a5.89,5.89,0,0,0,2.78-.83L97.43,72.36S101.73,69.78,99.21,65.85Z"/><path class="cls-1" d="M80.65,3C78.73.3,75.3-.67,71.69.46s-5.92,4.18-8,7.09a24.44,24.44,0,0,1-5.65,6,24.44,24.44,0,0,1-5.65-6c-2.12-2.91-4.3-5.91-8-7.09s-7-.15-9,2.55a7.48,7.48,0,0,0,.18,8.82C39.77,17.52,49.35,18,58,18s18.23-.47,22.47-6.16A7.48,7.48,0,0,0,80.65,3ZM38.74,9.44a3.5,3.5,0,0,1-.13-4.12A3.26,3.26,0,0,1,41.38,4a6,6,0,0,1,1.73.29c2.48.78,4.12,3,6,5.62a44.56,44.56,0,0,0,3.12,4C46.23,13.54,41,12.49,38.74,9.44Zm38.52,0c-2.28,3.05-7.5,4.1-13.5,4.42a44.56,44.56,0,0,0,3.12-4c1.89-2.59,3.53-4.84,6-5.62A6,6,0,0,1,74.62,4a3.26,3.26,0,0,1,2.77,1.33A3.5,3.5,0,0,1,77.26,9.44Z"/></svg>