<svg id="Capa_1" data-name="Capa 1" xmlns="http://www.w3.org/2000/svg" viewBox="0 0 100 100"><defs><style>.cls-1{fill:#a6218c;}</style></defs><g id="B177_Company_Employee_Group_People" data-name="B177, Company, Employee, Group, People"><path class="cls-1" d="M49.73,22a4.46,4.46,0,1,0-4.51-4.45A4.43,4.43,0,0,0,49.73,22Z"/><path class="cls-1" d="M45.22,25.37h0a.54.54,0,0,1-.36.18h0c-.17,0-.17.18-.36.18h-.18l-.18.18H44s-.18,0-.18.17l-.18.18a.18.18,0,0,0-.18.18l-.18.18a.18.18,0,0,0-.18.18l-.18.18-.18.17-.18.18-.18.18-.18.18-.18.18L41.8,28l-.18.18-.18.18a.18.18,0,0,1-.18.18l-.18.18a.18.18,0,0,1-.18.18v.17a.18.18,0,0,1-.18.18v.18l-.18.18h0c0,.18-.18.18-.18.35h0c0,.18-.18.18-.18.36v.36a16.17,16.17,0,0,0,7.57,2.67h2.16a15.75,15.75,0,0,0,8.47-3V30a.17.17,0,0,0-.18-.17v-.18c0-.18-.18-.18-.18-.36h0l-.18-.18v-.17l-.18-.18v-.18a.18.18,0,0,0-.18-.18l-.18-.18L57.12,28l-.18-.17-.18-.18-.18-.18-.18-.18-.18-.18L56,27l-.18-.18-.18-.18-.18-.18-.19-.18-.17-.18s-.19,0-.19-.17h-.17s-.19,0-.19-.18h-.18l-.18-.18h0c-.18,0-.18-.18-.36-.18h0c-.18,0-.18-.18-.36-.18h0s-.18,0-.18-.17h-.18a.18.18,0,0,1-.18-.18H44.69s-.19,0-.19.18h-.17C45.41,25.19,45.22,25.37,45.22,25.37Z"/><path class="cls-1" d="M21.62,89.14a4.46,4.46,0,1,0-4.5-4.46A4.44,4.44,0,0,0,21.62,89.14Z"/><path class="cls-1" d="M37.48,85.75V80.41c0-.18,0-.18-.18-.36,0-.18,0-.18-.18-.35,0-.18,0-.18-.18-.36,0-.18-.18-.53-.18-.71v-.18c0-.18-.18-.36-.18-.53v-.18c0-.18-.18-.36-.36-.54h0c-.18-.18-.18-.35-.36-.71h0a15.61,15.61,0,0,0-11.54-8H18.38a.66.66,0,0,0-.54.18h-.18c-.54.18-.9.36-1.44.54h0A15.66,15.66,0,0,0,5.77,84,15,15,0,0,0,11,95.55a.18.18,0,0,1,.18-.18v-.18a.18.18,0,0,1,.18-.18v-.17c0-.18.18-.18.18-.36V94.3l.18-.18a.17.17,0,0,1,.18-.17l.18-.18a.18.18,0,0,1,.18-.18l.18-.18a.18.18,0,0,1,.18-.18l.18-.18a.17.17,0,0,1,.18-.17l.18-.18.19-.18.17-.18s.19,0,.19-.18l.17-.17.19-.18.18-.18h.18c.18-.18.18-.18.36-.18H15l.18-.18a.18.18,0,0,0,.18-.18l.18-.17a.18.18,0,0,0,.18-.18.18.18,0,0,0,.18-.18.18.18,0,0,0,.18-.18.18.18,0,0,0,.18-.18s.18,0,.18-.17a.18.18,0,0,0,.18-.18h.18a.18.18,0,0,0,.18-.18h.18a.18.18,0,0,0,.18-.18h.36a5,5,0,0,1-2.88-4.81,6.76,6.76,0,1,1,13.51,0,6.32,6.32,0,0,1-2.52,5.17h0c.18,0,.18,0,.36.18h.18c.18,0,.18,0,.36.17h.18a.18.18,0,0,1,.18.18h.18a.18.18,0,0,1,.18.18h.18a.18.18,0,0,1,.18.18h.18l.18.18h.18l.18.17h.18c.18,0,.18.18.36.18h0c.18,0,.18.18.36.18h0l.18.18.18.18.18.18.18.17.18.18.18.18.18.18.18.18.18.17.18.18.18.18.18.18.18.18V94c0,.17.18.17.18.35h0c0,.18.18.18.18.36v.17l.18.18v.18a.18.18,0,0,0,.18.18c.72-.71,1.44-1.6,2.17-2.32h0A11.26,11.26,0,0,0,36,90.56h0c0-.18.18-.36.18-.53h0c0-.18.18-.36.18-.54v-.18c0-.17.18-.35.18-.53V88.6c.18-.53.18-1.07.36-1.42v-.89Q37.48,86,37.48,85.75Z"/><path class="cls-1" d="M34.05,20.21a16,16,0,0,0,4.87,8.19.18.18,0,0,1,.18-.18V28c0-.17.18-.17.18-.35v-.18c0-.18.18-.18.18-.36V27a.18.18,0,0,1,.18-.18.18.18,0,0,1,.18-.18l.18-.18a.18.18,0,0,1,.18-.18l.18-.18a.17.17,0,0,1,.18-.17l.18-.18a.18.18,0,0,1,.18-.18l.18-.18a.18.18,0,0,1,.18-.18l.18-.17.18-.18.18-.18.18-.18.18-.18h0l.36-.35h.18l.18-.18a.18.18,0,0,0,.18-.18l.18-.18s.18,0,.18-.17a.18.18,0,0,0,.18-.18.18.18,0,0,0,.18-.18A.18.18,0,0,0,44,22.7a.18.18,0,0,0,.18-.18s.18,0,.18-.17h.18s.19,0,.19-.18h.17s.19,0,.19-.18h.36a6.55,6.55,0,0,1-2.53-5.17,6.85,6.85,0,0,1,13.7,0A6.33,6.33,0,0,1,54.05,22h0c.18,0,.18,0,.36.18h.18s.19,0,.19.18H55s.19,0,.19.17h.17s.19,0,.19.18h.17s.19,0,.19.18H56l.18.18h.18l.18.18h.18c.18,0,.18.17.36.17h0c.18,0,.18.18.36.18h0l.18.18.18.18.18.18.18.17.18.18.18.18.18.18.18.18.18.17.18.18.18.18.18.18.18.18v.17c0,.18.18.18.18.36h0c0,.18.18.18.18.36V27l.18.17v.36a16.17,16.17,0,0,0,4.5-8h0a19.35,19.35,0,0,0,.36-3.38,16,16,0,0,0-32.07,0,35.51,35.51,0,0,1,.9,4.1Z"/><path class="cls-1" d="M30.63,96.62a.18.18,0,0,0-.18-.18v-.18c0-.18-.18-.18-.18-.36h0l-.18-.17v-.18a.18.18,0,0,0-.18-.18v-.18a.18.18,0,0,0-.18-.18l-.18-.17a.18.18,0,0,0-.18-.18l-.18-.18L29,94.3l-.18-.18L28.65,94l-.18-.18-.18-.18-.18-.18-.18-.18-.18-.18-.18-.17-.18-.18a.18.18,0,0,1-.18-.18H27a.18.18,0,0,1-.18-.18h-.18l-.18-.18h0c-.18,0-.18-.17-.36-.17h0c-.18,0-.18-.18-.36-.18h0a.18.18,0,0,1-.18-.18h-.18a.18.18,0,0,1-.18-.18H16.94a.18.18,0,0,0-.18.18h-.18a.18.18,0,0,0-.18.18h-.18c-.18,0-.18.18-.36.18h0c-.18,0-.18.17-.36.17h-.18a.18.18,0,0,0-.18.18H15a.18.18,0,0,0-.18.18l-.18.18a.18.18,0,0,0-.18.18l-.18.17a.18.18,0,0,0-.18.18l-.19.18-.17.18-.19.18-.17.18-.19.17L13,94.3l-.18.18-.18.18-.18.18a.17.17,0,0,1-.18.17l-.18.18a.18.18,0,0,1-.18.18l-.18.18a.18.18,0,0,1-.18.18v.17l-.18.18v.18c0,.18-.18.18-.18.36h0c0,.17-.18.17-.18.35v.18a.18.18,0,0,1-.18.18A16.26,16.26,0,0,0,29.19,97c1.62-.18,1.62-.18,1.44-.35Z"/><path class="cls-1" d="M87.39,71.15a1.12,1.12,0,0,1-.73-.18A15,15,0,0,0,78,68.3,15.9,15.9,0,0,0,62.34,84.15a14.93,14.93,0,0,0,5.23,11.58.18.18,0,0,1,.18-.18v-.18c0-.18.18-.18.18-.36v-.17c0-.18.18-.18.18-.36V94.3l.18-.18a.17.17,0,0,1,.18-.17l.18-.18a.18.18,0,0,1,.18-.18l.18-.18a.18.18,0,0,1,.18-.18l.18-.18a.17.17,0,0,1,.18-.17l.18-.18a.18.18,0,0,1,.18-.18l.18-.18.18-.18.18-.17.18-.18.18-.18h0l.36-.36h.18l.18-.18s.18,0,.18-.17l.18-.18a.18.18,0,0,0,.18-.18l.18-.18a.18.18,0,0,0,.18-.18s.18,0,.18-.17a.18.18,0,0,0,.18-.18.18.18,0,0,0,.18-.18h.18a.18.18,0,0,0,.18-.18h.18a.18.18,0,0,0,.18-.18h.36a6.54,6.54,0,0,1-2.52-5.16,6.76,6.76,0,1,1,13.51,0,6.29,6.29,0,0,1-2.52,5.16h0c.18,0,.18,0,.36.18h.18a.18.18,0,0,1,.18.18h.18a.18.18,0,0,1,.18.18h.18A.18.18,0,0,1,84,90h.18s.18,0,.18.17h.18l.18.18h.18l.18.18h.18c.18,0,.18.18.36.18h0c.18,0,.18.18.36.18h0l.19.17.17.18.19.18.17.18.19.18L87,92l.19.17.18.18.18.18a.18.18,0,0,0,.18.18l.18.18a.17.17,0,0,0,.18.17l.18.18.18.18c0,.18.18.18.18.36h0c0,.18.18.18.18.35v.18l.18.18a.18.18,0,0,0,.18.18.18.18,0,0,0,.18.18,16.13,16.13,0,0,0,4.86-11.4A15.54,15.54,0,0,0,87.39,71.15Z"/><path class="cls-1" d="M65,71.33A18.53,18.53,0,0,1,78,66h.36A18.25,18.25,0,0,1,87,68.12a36.21,36.21,0,0,0,1.8-11.58A38.54,38.54,0,0,0,67.39,22.17a16.23,16.23,0,0,1-4.51,7.3h0l-.36.36-.18.17-.18.18-.36.36h-.18l-.18.18-.18.17h0c-.18.18-.36.36-.54.36a.18.18,0,0,0-.18.18c-.36.18-.54.35-.72.35-.18.18-.36.18-.54.36h0a18.41,18.41,0,0,1-19.1,0H40a.39.39,0,0,1-.36-.36c-.18,0-.18-.17-.36-.17a.18.18,0,0,1-.18-.18c-.18,0-.18-.18-.36-.36h0c-.18-.18-.36-.18-.36-.35h0a.18.18,0,0,1-.18-.18c-.18,0-.18-.18-.36-.18l-.18-.18A20.39,20.39,0,0,1,32.25,22,38.62,38.62,0,0,0,10.81,56.36a44.6,44.6,0,0,0,1.8,11.94A28.39,28.39,0,0,1,16,66.87h0c.36,0,.54-.18.9-.18h0c.18,0,.54-.17.72-.17h.18c.18,0,.54-.18.72-.18h5.59a18.63,18.63,0,0,1,10.09,5,18.09,18.09,0,0,1,4,5.69v.18c0,.18.18.36.18.54s0,.18.18.35c0,.18.18.36.18.54s0,.18.18.35c0,.18,0,.18.18.36,0,.18.18.53.18.71V84h0v2h0v.89a19.74,19.74,0,0,1-2.16,6.23,40.81,40.81,0,0,0,12.25,2,43,43,0,0,0,12.43-2A18.28,18.28,0,0,1,65,71.33Zm1.81-14.79a1.09,1.09,0,0,1-2.17,0,1.17,1.17,0,0,1,1.08-1.07A1,1,0,0,1,66.85,56.54ZM64.68,51a1.22,1.22,0,0,1,1.44.71v.36a1.21,1.21,0,0,1-.72,1.07H65A1.22,1.22,0,0,1,64,52.44v-.35A1.2,1.2,0,0,1,64.68,51Zm-1.26,11a1,1,0,0,1,1.44-.53,1.19,1.19,0,0,1,.73,1.07V63a1.24,1.24,0,0,1-1.09.72h-.36a1.21,1.21,0,0,1-.72-1.07C63.24,62.42,63.42,62.24,63.42,62.06Zm-2-16.38a1.14,1.14,0,0,1,1.62.18,1,1,0,0,1,.18.71,1.37,1.37,0,0,1-.36.89,1.08,1.08,0,0,1-.72.18,1.37,1.37,0,0,1-.9-.36,1.06,1.06,0,0,1-.18-.71A1,1,0,0,1,61.44,45.68ZM60.18,66.87h0a1.18,1.18,0,0,1,2,.71.94.94,0,0,1-.36.72,1.42,1.42,0,0,1-.72.35,1,1,0,0,1-.72-.35c-.54-.18-.54-.36-.54-.72A.71.71,0,0,1,60.18,66.87ZM33,55.65h0c0-.71.54-1.07,1.27-1.07a1.17,1.17,0,0,1,1.08,1.07h0a1.16,1.16,0,0,1-1.08,1.07h0A1.2,1.2,0,0,1,33,55.65Zm2.53,7.13h-.36a1.24,1.24,0,0,1-1.09-.72v-.35a1.2,1.2,0,0,1,.72-1.07,1.24,1.24,0,0,1,1.45.71h0v.36A1.48,1.48,0,0,1,35.5,62.78Zm1.26-12.65a1.08,1.08,0,0,1-1.08.53.69.69,0,0,1-.54-.17c-.18-.18-.54-.54-.54-.89a.69.69,0,0,1,.17-.54,1.23,1.23,0,0,1,1.45-.53,1.06,1.06,0,0,1,.54,1.07A.33.33,0,0,1,36.76,50.13ZM39.1,67.76a1.36,1.36,0,0,1-.72.36c-.36,0-.54-.18-.9-.36a1.34,1.34,0,0,1-.36-.71c0-.36.18-.53.36-.89a1.14,1.14,0,1,1,1.62,1.6ZM40.36,45.5a1.36,1.36,0,0,1-.72.36c-.36,0-.54-.18-.9-.36a1.34,1.34,0,0,1-.36-.71c0-.36.18-.54.36-.89a1.15,1.15,0,0,1,1.62.17,1.36,1.36,0,0,1,.36.72A1.34,1.34,0,0,1,40.36,45.5Zm4,25.65a1.22,1.22,0,0,1-1.08.71.66.66,0,0,1-.54-.18A1.2,1.2,0,0,1,42,70.61a.64.64,0,0,1,.18-.53,1,1,0,0,1,1.44-.54,1.21,1.21,0,0,1,.72,1.07A.34.34,0,0,1,44.32,71.15Zm1.09-28.5h-.36A1.23,1.23,0,0,1,44,41.94v-.36a1.2,1.2,0,0,1,.73-1.07h0a1.23,1.23,0,0,1,1.44.71v.36A1,1,0,0,1,45.41,42.65ZM50.63,72a1.16,1.16,0,0,1-1.08,1.07h0A1.16,1.16,0,0,1,48.47,72h0a1.08,1.08,0,0,1,2.16,0Zm1.8-31a1.15,1.15,0,0,1-1.08,1.06h-.18a1.15,1.15,0,0,1-1.08-1.06v-.18a1.2,1.2,0,0,1,1.26-1.07h0a1.19,1.19,0,0,1,1.08,1.25ZM56,72h-.37a1.25,1.25,0,0,1-1.08-.71V71a1.46,1.46,0,0,1,.72-1.07,1.08,1.08,0,0,1,1.45.71V71A1.21,1.21,0,0,1,56,72ZM58.2,43.18a1.09,1.09,0,0,1-1.08.54.66.66,0,0,1-.54-.18h0A1.07,1.07,0,0,1,56,42.47a.63.63,0,0,1,.18-.53,1.21,1.21,0,0,1,1.44-.54,1.08,1.08,0,0,1,.54,1.07C58.38,42.83,58.38,43,58.2,43.18Z"/><path class="cls-1" d="M78.2,89.14a4.46,4.46,0,1,0-4.51-4.46A4.55,4.55,0,0,0,78.2,89.14Z"/><path class="cls-1" d="M87.39,96.62a.18.18,0,0,0-.18-.18v-.18c0-.18-.18-.18-.18-.36h0l-.18-.17v-.18l-.19-.18v-.18L86.49,95l-.19-.17-.17-.18-.19-.18-.18-.18-.18-.18L85.4,94l-.18-.18L85,93.59l-.18-.18-.18-.18-.18-.18-.18-.17h-.18L84,92.7h-.18l-.18-.18h-.18l-.18-.18h0c-.18,0-.18-.18-.36-.18h0c-.18,0-.18-.17-.36-.17h0l-.18-.18h-.18a.18.18,0,0,1-.18-.18H73.69a.18.18,0,0,0-.18.18h-.18a.18.18,0,0,0-.18.18h0c-.18.17-.36.17-.72.35h0l-.18.18h-.18l-.18.18h-.18l-.18.18-.18.17-.18.18-.18.18-.18.18-.18.18-.18.18-.18.17-.18.18-.18.18-.18.18-.18.18-.18.17-.18.18-.18.18v.18l-.18.18v.17l-.18.18h0c-.18.18-.18.36-.36.71V97a.18.18,0,0,1-.18.18,16.15,16.15,0,0,0,9,2.67,16.32,16.32,0,0,0,9.37-3c1.08,0,1.08,0,.9-.17Z"/></g></svg>