<svg id="Capa_1" data-name="Capa 1" xmlns="http://www.w3.org/2000/svg" viewBox="0 0 148.75 147.72"><defs><style>.cls-1{fill:#fff;}.cls-2{fill:#3aa438;}.cls-3{fill:#e64e22;}.cls-4{fill:#743d8e;}.cls-5{fill:#e60a7e;}.cls-6{fill:#ef9bbe;}.cls-7{fill:#372c65;}.cls-8{fill:#f0ae89;}.cls-9{fill:#afce94;}.cls-10{fill:#80ccf3;}.cls-11{fill:#24aadf;}</style></defs><path class="cls-1" d="M74.54,147.42a4,4,0,0,1-2.62-1c-7.53-6.77-13.23-16.48-16.22-27.13a58.9,58.9,0,0,1-28.28,7.87h0c-.81,0-1.62,0-2.43-.07a3.91,3.91,0,0,1-3.69-3.7c-.54-10,2.39-21,7.82-30.71-11-3.08-20.65-8.8-27.3-16.21a3.9,3.9,0,0,1,0-5.23C8.48,63.81,18.38,58.06,29.12,55c-5.59-9.92-8.35-20.78-7.81-30.73A3.9,3.9,0,0,1,25,20.62c.81-.05,1.62-.07,2.43-.07,9.37,0,19.4,2.87,28.3,7.87C58.79,17.56,64.49,8,71.9,1.32a3.42,3.42,0,0,1,.51-.39A3.84,3.84,0,0,1,73.3.5,3.88,3.88,0,0,1,74.51.3h0a3.73,3.73,0,0,1,1.23.2,3.81,3.81,0,0,1,.89.42h0a3.42,3.42,0,0,1,.52.4c7.52,6.76,13.22,16.46,16.2,27.1a58.69,58.69,0,0,1,28.05-7.71c.83,0,1.66,0,2.48.06a3.92,3.92,0,0,1,3.7,3.7c.54,10.13-2.29,21.05-7.71,30.68,10.89,3.19,20.69,9,27,16.08a3.9,3.9,0,0,1,0,5.23c-6.75,7.52-16.41,13.21-27,16.2,5.49,9.81,8.2,20.61,7.66,30.56a3.91,3.91,0,0,1-3.69,3.7c-.82,0-1.65.07-2.48.07h0a59.11,59.11,0,0,1-28.09-7.75c-3.06,10.9-8.78,20.51-16.2,27.17A3.93,3.93,0,0,1,74.54,147.42ZM72.7,57.51c.23.1.45.21.68.33a13.24,13.24,0,0,1,1.15.67,14,14,0,0,1,1.82-1c-.6-.06-1.2-.09-1.81-.09A16,16,0,0,0,72.7,57.51Z"/><path class="cls-1" d="M100.36,91.27l-3.11-2.1a27.67,27.67,0,0,1-7.4,7.39L92,99.68A31.26,31.26,0,0,0,100.36,91.27Zm-5.84-3.94-3.1-2.09a20.52,20.52,0,0,1-5.5,5.49L88,93.83A24.4,24.4,0,0,0,94.52,87.33ZM48.71,56.43l3.12,2.1a27.64,27.64,0,0,1,7.39-7.39L57.12,48A31.3,31.3,0,0,0,48.71,56.43Zm5.85,3.94,3.1,2.09A20.48,20.48,0,0,1,63.15,57l-2.09-3.1A24.22,24.22,0,0,0,54.56,60.37Zm42.69-1.84,3.11-2.1A31.26,31.26,0,0,0,92,48l-2.11,3.12A27.67,27.67,0,0,1,97.25,58.53ZM88,53.87,85.92,57a20.52,20.52,0,0,1,5.5,5.49l3.1-2.09A24.4,24.4,0,0,0,88,53.87Zm-26.95,40,2.09-3.1a20.48,20.48,0,0,1-5.49-5.49l-3.1,2.09A24.22,24.22,0,0,0,61.06,93.83Zm-9.23-4.66-3.12,2.1a31.3,31.3,0,0,0,8.41,8.41l2.1-3.12A27.64,27.64,0,0,1,51.83,89.17ZM144,73.85c-6.49-7.23-16.57-12.61-26.55-15.31a61.1,61.1,0,0,1-6.85,8.68l-1.83,1.93c0,.13,0,.27,0,.4a39,39,0,0,1,.39,4.3c0,.72,0,1.43-.07,2.15,0,.24,0,.48-.06.71,0,.48-.08,1-.14,1.43,0,.28-.08.56-.12.83-.07.44-.13.87-.21,1.3l-.18.84a34.56,34.56,0,0,1-3.8,10c14.83-.36,30.13-6.94,39.37-17.23Zm-83.14-28,4.73,9.7a20.36,20.36,0,0,1,17.85,0l4.73-9.7a31.17,31.17,0,0,0-27.31,0ZM76.33,48.1a1.8,1.8,0,1,1-1.79-1.8A1.79,1.79,0,0,1,76.33,48.1Zm11.86,53.75-4.73-9.7a20.36,20.36,0,0,1-17.85,0l-4.73,9.7a31.17,31.17,0,0,0,27.31,0ZM72.74,99.6a1.8,1.8,0,1,1,1.8,1.8A1.79,1.79,0,0,1,72.74,99.6Zm33-25.75a31.12,31.12,0,0,0-3.15-13.66l-9.7,4.73a20.47,20.47,0,0,1,0,17.86l9.7,4.73A31.12,31.12,0,0,0,105.69,73.85Zm-5.4,1.8a1.8,1.8,0,1,1,1.8-1.8A1.81,1.81,0,0,1,100.29,75.65Zm-56.9-1.8a31,31,0,0,0,3.15,13.66l9.7-4.73a20.39,20.39,0,0,1,0-17.86l-9.7-4.73A31,31,0,0,0,43.39,73.85Zm5.39-1.8a1.8,1.8,0,1,1-1.8,1.8A1.8,1.8,0,0,1,48.78,72.05ZM38.37,80.48l1.8-1.89h0a34.22,34.22,0,0,1-.33-4.74c0-.71,0-1.43.07-2.15,0-.24.05-.48.07-.72,0-.47.07-.94.13-1.42,0-.28.09-.55.13-.83.06-.44.13-.87.21-1.31,0-.27.11-.55.17-.83a34.47,34.47,0,0,1,3.81-10C29.6,57,14,63.56,4.73,73.85c6.55,7.3,16.32,12.73,26.73,15.4A60.87,60.87,0,0,1,38.37,80.48Zm66.36,14.23-2.52.06a32.75,32.75,0,0,1-3.14,3.61c-.5.51-1,1-1.56,1.47l-.56.47c-.37.31-.73.61-1.1.9-.22.18-.46.34-.68.51l-1.07.77-.72.47a34.59,34.59,0,0,1-9.73,4.36c10.74,10.22,26.25,16.44,40.06,15.69.53-9.79-2.45-20.44-7.87-29.64A60.21,60.21,0,0,1,104.73,94.71ZM44.26,53l2.6-.07A35.93,35.93,0,0,1,50,49.32c.51-.51,1-1,1.57-1.47l.56-.47c.36-.3.72-.61,1.1-.9.22-.18.45-.34.68-.51s.7-.52,1.07-.77.47-.31.71-.46a34.4,34.4,0,0,1,9.74-4.37C54.69,30.14,39,23.78,25.21,24.53c-.53,9.79,2.53,20.53,8,29.78A60.41,60.41,0,0,1,44.26,53Zm51.15-6.86h0a34.76,34.76,0,0,1,3.66,3.18c.51.5,1,1,1.47,1.56.16.18.31.38.47.56.3.36.61.72.9,1.1l.51.68c.26.35.52.7.76,1.07s.32.47.47.71A34.68,34.68,0,0,1,108,64.74c10.22-10.74,16.42-26.24,15.68-40-9.8-.53-20.46,2.45-29.66,7.87a60.62,60.62,0,0,1,1.31,11.06Zm-18-6.85c.48,0,.95.08,1.42.14l.84.12c.43.06.87.13,1.3.21s.56.12.83.18a34.34,34.34,0,0,1,10,3.8c-.36-14.83-6.94-30.29-17.23-39.53V39.15c.71,0,1.43,0,2.14.07Zm1.87,68.93a35.69,35.69,0,0,1-4.73.33c-.72,0-1.43,0-2.15-.07l-.72-.07-1.42-.13-.84-.13-1.3-.21c-.28,0-.56-.12-.83-.18a34.44,34.44,0,0,1-10-3.8c.37,14.83,7,30.31,17.24,39.54,7.29-6.54,12.72-16.23,15.39-26.59a60.86,60.86,0,0,1-8.8-6.93Zm-25.7-6.73A34,34,0,0,1,50,98.38c-.5-.5-1-1-1.46-1.56-.16-.18-.31-.37-.47-.56-.31-.36-.61-.72-.91-1.1-.17-.22-.33-.45-.5-.68s-.52-.7-.77-1.07-.31-.47-.47-.71A34.71,34.71,0,0,1,41.06,83c-10.23,10.75-16.6,26.43-15.85,40.23,9.78.53,20.51-2.52,29.75-8a61.17,61.17,0,0,1-1.32-11.11Zm16.15-62h0a35.39,35.39,0,0,1,4.82-.34V4.21C67.23,10.77,61.8,20.46,59.13,30.84a60.54,60.54,0,0,1,8.73,6.89ZM92.56,70.44a10.22,10.22,0,0,0-1.65-5.58,10.38,10.38,0,0,0-4.7-3.93,10.2,10.2,0,0,0-3.95-.79c-.24,0-.52,0-.76,0a10.09,10.09,0,0,0-5.75,2.29,11.15,11.15,0,0,0-1.21,1.17h0a10.51,10.51,0,0,0-3-2.32,10.29,10.29,0,0,0-4.06-1.14c-.23,0-.46,0-.7,0a11,11,0,0,0-1.74.15l-.19,0a10.28,10.28,0,0,0-7.81,6.79,7.9,7.9,0,0,0-.27.95,9.73,9.73,0,0,0-.28,2.37,10.12,10.12,0,0,0,.67,3.66,10.37,10.37,0,0,0,1.78,3l9.76,9.78,5.81,5.82,5.8-5.82-5.81-5.81v0l5.81,5.81,7-7L81.5,74V67.12h0V74l5.83,5.83,2.77-2.73a10.19,10.19,0,0,0,.64-.83,10.72,10.72,0,0,0,1.11-2.09h0l0-.06v0h0l0-.09A9.79,9.79,0,0,0,92.56,70.44Z"/><path class="cls-2" d="M89.85,96.56,92,99.68a31.26,31.26,0,0,0,8.4-8.41l-3.11-2.1A27.67,27.67,0,0,1,89.85,96.56Z"/><path class="cls-2" d="M91.42,85.24a20.52,20.52,0,0,1-5.5,5.49L88,93.83a24.4,24.4,0,0,0,6.51-6.5Z"/><path class="cls-2" d="M59.22,51.14,57.12,48a31.3,31.3,0,0,0-8.41,8.41l3.12,2.1A27.64,27.64,0,0,1,59.22,51.14Z"/><path class="cls-2" d="M63.15,57l-2.09-3.1a24.22,24.22,0,0,0-6.5,6.5l3.1,2.09A20.48,20.48,0,0,1,63.15,57Z"/><path class="cls-3" d="M97.25,58.53l3.11-2.1A31.26,31.26,0,0,0,92,48l-2.11,3.12A27.67,27.67,0,0,1,97.25,58.53Z"/><path class="cls-3" d="M91.42,62.46l3.1-2.09A24.4,24.4,0,0,0,88,53.87L85.92,57A20.52,20.52,0,0,1,91.42,62.46Z"/><path class="cls-3" d="M57.66,85.24l-3.1,2.09a24.22,24.22,0,0,0,6.5,6.5l2.09-3.1A20.48,20.48,0,0,1,57.66,85.24Z"/><path class="cls-3" d="M51.83,89.17l-3.12,2.1a31.3,31.3,0,0,0,8.41,8.41l2.1-3.12A27.64,27.64,0,0,1,51.83,89.17Z"/><path class="cls-4" d="M91.77,43.74c-.36-14.83-6.94-30.29-17.23-39.53V39.15A34.64,34.64,0,0,1,91.77,43.74Z"/><path class="cls-3" d="M65.43,40.37C54.69,30.14,39,23.78,25.21,24.53L50,49.32A34.68,34.68,0,0,1,65.43,40.37Z"/><path class="cls-5" d="M44.43,56.61C29.6,57,14,63.56,4.73,73.85H39.84A34.7,34.7,0,0,1,44.43,56.61Z"/><path class="cls-2" d="M41.06,83c-10.23,10.75-16.6,26.43-15.85,40.23L50,98.38A34.55,34.55,0,0,1,41.06,83Z"/><path class="cls-4" d="M57.3,104c.37,14.83,7,30.31,17.24,39.54V108.55A34.7,34.7,0,0,1,57.3,104Z"/><path class="cls-3" d="M83.65,107.33c10.74,10.22,26.25,16.44,40.06,15.69L99.07,98.38A34.59,34.59,0,0,1,83.65,107.33Z"/><path class="cls-5" d="M104.65,91.08c14.83-.36,30.13-6.94,39.37-17.23H109.23A34.63,34.63,0,0,1,104.65,91.08Z"/><path class="cls-5" d="M60.88,45.85l4.73,9.7a20.36,20.36,0,0,1,17.85,0l4.73-9.7a31.17,31.17,0,0,0-27.31,0ZM76.33,48.1a1.8,1.8,0,1,1-1.79-1.8A1.79,1.79,0,0,1,76.33,48.1Z"/><path class="cls-5" d="M74.54,94.21a20.24,20.24,0,0,1-8.93-2.06l-4.73,9.7a31.17,31.17,0,0,0,27.31,0l-4.73-9.7A20.2,20.2,0,0,1,74.54,94.21Zm0,7.19a1.8,1.8,0,1,1,1.79-1.8A1.79,1.79,0,0,1,74.54,101.4Z"/><path class="cls-4" d="M102.54,60.19l-9.7,4.73a20.47,20.47,0,0,1,0,17.86l9.7,4.73a31.19,31.19,0,0,0,0-27.32Zm-2.25,15.46a1.8,1.8,0,1,1,1.8-1.8A1.81,1.81,0,0,1,100.29,75.65Z"/><path class="cls-4" d="M46.54,60.19a31.19,31.19,0,0,0,0,27.32l9.7-4.73a20.39,20.39,0,0,1,0-17.86Zm2.24,15.46a1.8,1.8,0,1,1,1.8-1.8A1.81,1.81,0,0,1,48.78,75.65Z"/><path class="cls-2" d="M108,64.74c10.22-10.74,16.42-26.24,15.68-40L99.07,49.32A34.68,34.68,0,0,1,108,64.74Z"/><path class="cls-6" d="M117.47,58.54a61.1,61.1,0,0,1-6.85,8.68l-1.83,1.93a34.86,34.86,0,0,1,.44,4.7H144C137.53,66.62,127.45,61.24,117.47,58.54Z"/><path class="cls-6" d="M38.37,80.48l1.8-1.89a34.12,34.12,0,0,1-.33-4.74H4.73c6.55,7.3,16.32,12.73,26.73,15.4A60.87,60.87,0,0,1,38.37,80.48Z"/><path class="cls-7" d="M81.13,110l-1.85-1.76a36,36,0,0,1-4.74.33v35c7.29-6.54,12.72-16.23,15.39-26.59A60.86,60.86,0,0,1,81.13,110Z"/><path class="cls-7" d="M59.13,30.84a60.54,60.54,0,0,1,8.73,6.89l1.86,1.76a35.39,35.39,0,0,1,4.82-.34V4.21C67.23,10.77,61.8,20.46,59.13,30.84Z"/><path class="cls-8" d="M104.73,94.71l-2.52.06a32.75,32.75,0,0,1-3.14,3.61L123.71,123c.53-9.79-2.45-20.44-7.87-29.64A60.21,60.21,0,0,1,104.73,94.71Z"/><path class="cls-8" d="M44.26,53l2.6-.07A37.25,37.25,0,0,1,50,49.32L25.21,24.53c-.53,9.79,2.53,20.53,8,29.78A60.41,60.41,0,0,1,44.26,53Z"/><path class="cls-9" d="M53.64,104.09l-.07-2.6A34,34,0,0,1,50,98.38l-24.79,24.8c9.78.53,20.51-2.52,29.75-8A61.17,61.17,0,0,1,53.64,104.09Z"/><path class="cls-9" d="M94,32.56a60.62,60.62,0,0,1,1.31,11.06l.06,2.52a34.76,34.76,0,0,1,3.66,3.18L123.7,24.69C113.9,24.16,103.24,27.14,94,32.56Z"/><path class="cls-2" d="M95.32,42.64l0,1,.06,2.52a34.76,34.76,0,0,1,3.66,3.18l9.5-9.5A25.92,25.92,0,0,0,95.32,42.64Z"/><path class="cls-7" d="M82.7,40.13a26,26,0,0,0-8.16-14.41V39.15A34.63,34.63,0,0,1,82.7,40.13Z"/><path class="cls-8" d="M56.46,44.23a25.88,25.88,0,0,0-16-4.41l9.5,9.5A35,35,0,0,1,56.46,44.23Z"/><path class="cls-6" d="M40.81,65.69A26,26,0,0,0,26.4,73.85H39.84A35.15,35.15,0,0,1,40.81,65.69Z"/><path class="cls-9" d="M44.92,91.93a26,26,0,0,0-4.42,16L50,98.38A35,35,0,0,1,44.92,91.93Z"/><path class="cls-7" d="M66.38,107.58A25.9,25.9,0,0,0,74.54,122V108.55A35.15,35.15,0,0,1,66.38,107.58Z"/><path class="cls-8" d="M92.62,103.46a25.88,25.88,0,0,0,15.95,4.43l-9.5-9.51A34.46,34.46,0,0,1,92.62,103.46Z"/><path class="cls-6" d="M108.26,82a25.82,25.82,0,0,0,14.41-8.15H109.23A34.47,34.47,0,0,1,108.26,82Z"/><path class="cls-9" d="M104.15,55.77a26,26,0,0,0,4.42-16l-9.5,9.5A34.55,34.55,0,0,1,104.15,55.77Z"/><path class="cls-5" d="M111.3,66.49l-.68.73-1.83,1.92a39.47,39.47,0,0,1,.44,4.71h13.44A26,26,0,0,0,111.3,66.49Z"/><path class="cls-3" d="M104.73,94.71l-2.52.06a32.75,32.75,0,0,1-3.14,3.61l9.5,9.51a25.92,25.92,0,0,0-2.8-13.22Z"/><path class="cls-4" d="M81.13,110l-1.86-1.76a35.69,35.69,0,0,1-4.73.33V122a26,26,0,0,0,7.35-11.29Z"/><path class="cls-2" d="M53.64,104.09l-.07-2.6A34,34,0,0,1,50,98.38l-9.5,9.51a26.07,26.07,0,0,0,13.18-2.78C53.66,104.77,53.65,104.43,53.64,104.09Z"/><path class="cls-5" d="M37.69,81.21l.68-.73,1.8-1.89a34.22,34.22,0,0,1-.33-4.74H26.4A26,26,0,0,0,37.69,81.21Z"/><path class="cls-3" d="M44.26,53l2.6-.07A37.25,37.25,0,0,1,50,49.32l-9.5-9.5A26,26,0,0,0,43.3,53Z"/><path class="cls-4" d="M67.16,37.07c.23.22.47.43.7.66l1.86,1.76a35.39,35.39,0,0,1,4.82-.34V25.72A25.9,25.9,0,0,0,67.16,37.07Z"/><path class="cls-9" d="M75.75,62.46a11.15,11.15,0,0,0-1.21,1.17v3.49h7Z"/><path class="cls-2" d="M81.5,60.17a10.09,10.09,0,0,0-5.75,2.29l5.75,4.66h0Z"/><path class="cls-5" d="M74.53,74.1H57.19a10.37,10.37,0,0,0,1.78,3l9.76,9.78,5.8-5.8Z"/><polygon class="cls-6" points="74.53 81.09 68.73 86.89 74.54 92.71 80.34 86.89 74.53 81.08 74.53 81.09"/><polygon class="cls-10" points="81.5 67.12 72.22 67.12 65.06 74.1 74.53 74.1 81.5 67.12"/><polygon class="cls-4" points="81.5 67.12 74.53 74.1 74.53 81.08 80.34 86.89 87.33 79.84 81.5 74.01 81.5 67.12"/><path class="cls-10" d="M91.88,74.1l0-.09H81.5l5.83,5.83,2.77-2.73a10.19,10.19,0,0,0,.64-.83h0a10.72,10.72,0,0,0,1.11-2.09h0l0-.06v0Z"/><path class="cls-11" d="M74.54,63.63h0a10.51,10.51,0,0,0-3-2.32,10.29,10.29,0,0,0-4.06-1.14h0c-.23,0-.46,0-.7,0a11,11,0,0,0-1.74.15v6.83h9.47Z"/><polygon class="cls-8" points="65.06 67.12 65.06 74.1 72.22 67.12 65.06 67.12"/><path class="cls-3" d="M57.07,67.12h8V60.29l-.19,0A10.28,10.28,0,0,0,57.07,67.12Z"/><path class="cls-4" d="M57.07,67.12a7.9,7.9,0,0,0-.27.95,9.73,9.73,0,0,0-.28,2.37,10.12,10.12,0,0,0,.67,3.66h7.88v-7Z"/><path class="cls-11" d="M90.91,64.86a10.38,10.38,0,0,0-4.7-3.93,10.2,10.2,0,0,0-3.95-.79c-.24,0-.52,0-.76,0V74H91.92a9.79,9.79,0,0,0,.64-3.57A10.22,10.22,0,0,0,90.91,64.86Z"/></svg>