<svg id="Capa_1" data-name="Capa 1" xmlns="http://www.w3.org/2000/svg" viewBox="0 0 148.75 147.72"><defs><style>.cls-1{fill:#95d0f3;}.cls-1,.cls-10,.cls-11,.cls-12,.cls-13,.cls-14,.cls-15,.cls-2,.cls-3,.cls-4,.cls-5,.cls-6,.cls-7,.cls-8,.cls-9{fill-rule:evenodd;}.cls-2{fill:#1ea2dc;}.cls-3{fill:#0371b6;}.cls-4{fill:#b48ab8;}.cls-5{fill:#773484;}.cls-6{fill:#392a5f;}.cls-7{fill:#f0a1c4;}.cls-8{fill:#c5236e;}.cls-9{fill:#f3b58e;}.cls-10{fill:#cd2717;}.cls-11{fill:#bbd294;}.cls-12{fill:#1f662e;}.cls-13{fill:#3a9d36;}.cls-14{fill:#e04313;}.cls-15{fill:#e00074;}</style></defs><path class="cls-1" d="M73.8,70.46A39.57,39.57,0,0,0,47.91,61a40.26,40.26,0,0,0-16.54,77,43.11,43.11,0,0,1-6.05-21.36,34.63,34.63,0,0,1-3.4-14.93A35.29,35.29,0,0,1,57.26,66.39a34.9,34.9,0,0,1,15.88,3.78c-.38.1-.57.19-1,.29A9.6,9.6,0,0,0,73.8,70.46Z"/><path class="cls-2" d="M73.14,70.27c-.38.09-.57.19-1,.28C46.11,72.72,25.7,92.19,25.32,115.91v.66l.1.09a35.83,35.83,0,0,0,21,18.62,45.32,45.32,0,0,1,26.74-65ZM25.32,115.91v0Z"/><path class="cls-3" d="M73.14,70.27a34.2,34.2,0,0,0-15.88-3.78,35.29,35.29,0,0,0-35.34,35.34,34.67,34.67,0,0,0,3.4,14.93c0-.1-.09-.19-.09-.38,0-23.91,20.6-43.66,46.87-45.83C72.47,70.46,72.76,70.36,73.14,70.27Z"/><path class="cls-4" d="M68.13,73.76a40.29,40.29,0,1,0,52.72,59.91,42.15,42.15,0,0,1-22.2-.19,34.39,34.39,0,0,1-15.4-1.13A35.09,35.09,0,0,1,59.62,88.5a35.78,35.78,0,0,1,8.13-14.17v1A8.26,8.26,0,0,0,68.13,73.76Z"/><path class="cls-5" d="M67.84,74.42v1a51.8,51.8,0,0,0-1.13,10v3.4c.57,20.79,12.76,38.93,31.75,44.6a.7.7,0,0,1,.38.1,35.47,35.47,0,0,0,23.72-14.93,44.53,44.53,0,0,1-22.21-.85A45.28,45.28,0,0,1,67.84,74.42Zm30.9,59.06c-.56.1-1.13.1-1.7.19a9.72,9.72,0,0,0,1.7-.19Z"/><path class="cls-6" d="M67.84,74.42A37.67,37.67,0,0,0,59.72,88.6a35.3,35.3,0,0,0,23.62,43.84,35.75,35.75,0,0,0,15.4,1.14c-.09-.1-.19-.1-.37-.1-23-6.9-35.91-32.13-30.62-58A4,4,0,0,0,67.84,74.42Z"/><path class="cls-7" d="M69.64,80.38a40.29,40.29,0,1,0,73.23-31.75,41.56,41.56,0,0,1-7.09,21A35.19,35.19,0,0,1,70.11,80.76c.29.09.57.18,1,.28A5,5,0,0,1,69.64,80.38Z"/><path class="cls-8" d="M70.11,80.94a35.22,35.22,0,0,0,60,3.12,34.65,34.65,0,0,0,5.67-14.27c-.09.1-.09.19-.18.29C122.08,89.83,93.92,94.46,71.06,81.32,70.77,81.13,70.4,81.13,70.11,80.94Z"/><path class="cls-9" d="M76.16,80.57A40.31,40.31,0,1,0,69.17,1,42.85,42.85,0,0,1,86.93,14.23a35.8,35.8,0,0,1,11.72,10,35.28,35.28,0,0,1-6.8,49.42,34.21,34.21,0,0,1-14.93,6.61l.56-.85A17.23,17.23,0,0,0,76.16,80.57Z"/><path class="cls-10" d="M76.82,80.28a34.16,34.16,0,0,0,14.93-6.61,35.25,35.25,0,0,0,6.8-49.42,36.89,36.89,0,0,0-11.71-10c.09.1.09.19.19.38C101.48,33.7,97,61.86,77.29,79.43A1.25,1.25,0,0,1,76.82,80.28Z"/><path class="cls-11" d="M78.05,73.67A40.3,40.3,0,1,0,0,56.85a42,42,0,0,1,18-13,36.32,36.32,0,0,1,13-8.31A35.27,35.27,0,0,1,77.86,73l-.57-.85A10.68,10.68,0,0,1,78.05,73.67Z"/><path class="cls-12" d="M78.05,73a36.26,36.26,0,0,0-1.89-16.35A35.19,35.19,0,0,0,18.05,43.9a.58.58,0,0,1,.38-.09c22.48-8.13,48,4.44,59.05,28.44A3.52,3.52,0,0,0,78.05,73Z"/><path class="cls-13" d="M77,71.4c.38.38.66.85,1,1.32a6.26,6.26,0,0,1-.57-.85c-11-23.71-36.19-36.38-58.58-28.63a.31.31,0,0,0-.19.1l.09-.1a.09.09,0,0,0-.09.1c-.1,0-.1,0-.19.09s-.09.1-.19.1a.09.09,0,0,1-.09.09,35.83,35.83,0,0,0-10.4,26h0V70A43.69,43.69,0,0,1,18.71,61.1a42.93,42.93,0,0,1,7.56-3.59A45.24,45.24,0,0,1,78.05,73.1l-.57-.85C77.29,72,77.2,71.68,77,71.4Z"/><path class="cls-14" d="M77.2,79.72a.52.52,0,0,0,.19-.38l-.1.09C77.39,79.53,77.29,79.62,77.2,79.72ZM90.05,19a5,5,0,0,0-.47-.76.66.66,0,0,1-.19-.38c-.57-.94-1.23-2-1.89-2.92a1.21,1.21,0,0,1-.28-.38l-.1-.1.57.29a5.83,5.83,0,0,0,.75.37,4.63,4.63,0,0,1-.75-.47,4.47,4.47,0,0,1-.76-.38v.1h-.09A35.39,35.39,0,0,0,59,12.15c.1,0,.1.1.19.1h-.09A45.77,45.77,0,0,1,75.4,24.91c.29.38.67.76.95,1.14a45.51,45.51,0,0,1,.38,54.14,6.54,6.54,0,0,1,.56-.76l.38-.38c-.09.1-.19.29-.28.38a60.37,60.37,0,0,0,10.2-12,51.22,51.22,0,0,0,7.94-25.89V39.27A41.64,41.64,0,0,0,90.05,19Z"/><path class="cls-15" d="M70.87,81.23a2.7,2.7,0,0,0-.76-.19A2.7,2.7,0,0,1,70.87,81.23Zm58.21-38.74v.19a.1.1,0,0,0-.1-.1,44.51,44.51,0,0,1-7.75,20.79,45.7,45.7,0,0,1-15.87,14.27c-.1,0-.19.09-.29.09-.28.19-.56.29-.85.47s-.56.29-.85.38c-.09.1-.28.1-.37.19a45.14,45.14,0,0,1-32.79,2.08,6.75,6.75,0,0,1,.75.28h-.09c.09,0,.19,0,.19.1h0c18.52,10.58,40.44,9.64,55.28-1.61h0c.28-.19.47-.38.75-.57a42.66,42.66,0,0,0,8.32-8.69,1.24,1.24,0,0,0,.28-.38h0c0,.19-.09.48-.09.67a2.71,2.71,0,0,0-.1.85c0-.29.1-.57.1-.85a2,2,0,0,0,.09-.76l.09-.1v-.18A34.62,34.62,0,0,0,129.08,42.49Z"/></svg>