<svg id="Capa_1" data-name="Capa 1" xmlns="http://www.w3.org/2000/svg" viewBox="0 0 148.75 147.72"><defs><style>.cls-1{fill:#fff;}.cls-2{fill:#080405;fill-rule:evenodd;}</style></defs><circle class="cls-1" cx="74.37" cy="73.86" r="73.86"/><path class="cls-2" d="M63,3.62a66.71,66.71,0,0,0-35.9,18.73C14.9,34.29,8.73,46.7,6.08,64.65,4.67,73.78,5,79,7.25,89.93c4.76,22.32,19,40.43,39.25,49.79,15.61,7.18,39.1,7.34,54.78.39C112.6,135,128.6,121.38,133,113c8-15.45,11.86-33,10.14-46.51s-4.45-21.14-11.39-31.76c-10.85-16.62-27.63-28-46-31.13A60,60,0,0,0,63,3.62ZM87.63,6C100,8.85,109.71,13.85,118.45,22c11.08,10.38,16.31,19,21,34.57l2.89,9.29-.86,11.24c-.7,9.13-1.32,12.72-3.51,19.27a68.68,68.68,0,0,1-48.54,45.73c-8.11,2-21.77,2-30-.08a66.4,66.4,0,0,1-32.31-18.81C14.43,110.07,8.89,97,7.25,76.28c-.86-10.38-.86-10.62,1.25-17C12.17,47.48,15.13,40.77,19.11,35A69.46,69.46,0,0,1,53.68,7.92C62.11,4.72,78.5,3.78,87.63,6Z"/><path class="cls-2" d="M65.39,18.76c-6.79,1.49-8,1.95-14.52,5.15a43.5,43.5,0,0,0-12.72,9.6C32.38,39.29,27.62,46,27.54,48.18S29,49.12,31,45.76C35,38.82,41,37.18,48.53,40.93l3.75,2-.78-3.05c-2-7.33,6.24-11.55,12.25-6.24,2.49,2.26,4,5.07,8.27,16.39l1.64,4.29-.47-7.8c-.47-7.73-1-10.38-3.36-16.23-1.17-2.89-5.61-7.57-7.25-7.57-.47,0-.63-.32-.39-.63s3.35-1.09,7-1.64a34.56,34.56,0,0,1,12.33-.08c3.12.47,6,1.18,6.32,1.49s-.55,1.4-2.11,2.26c-4.37,2.58-7.18,9.52-8,19.67-.23,3.2-.54,6.78-.7,8-.47,2.88.86,2.8,1.41-.08C79.59,46.47,84,36.56,86.38,34c3.35-3.59,8-3.82,11.16-.7,1.79,1.79,1.95,2.42,1.56,5.85L98.63,43l3.67-1.88a15.24,15.24,0,0,1,9.28-2.1c2.11.07,7.65,4.91,9.29,8,1.17,2.27,2.65,3,2.65,1.17,0-2-5.93-10.22-10.61-14.82A58.57,58.57,0,0,0,92.7,20.64c-4.53-1.72-7-2.11-14.83-2.27C72.72,18.22,67.1,18.37,65.39,18.76Z"/><path class="cls-2" d="M60.94,47.25c-1,2.26.23,4.29,2.57,4.29,2.58,0,3.44-4.14,1.17-5.62C63.12,44.83,61.87,45.3,60.94,47.25Z"/><path class="cls-2" d="M84.82,47.25c-.63,2.42.93,4.45,3.12,4.13a2.23,2.23,0,0,0,1.87-2C90.36,45.53,85.75,43.58,84.82,47.25Z"/><path class="cls-2" d="M18.33,57c-3.82,2.34-5.62,5.85-5.62,11,0,3.28.47,5.08,1.8,7a12.46,12.46,0,0,0,20.13.47c1.48-2,1.87-3.44,1.87-7.57,0-5.7-1.79-9.21-5.85-11.32C27.38,55,21.45,55.13,18.33,57Zm5,4.53a4.74,4.74,0,0,1-2.57,8.74c-3.36,0-5.38-5.62-2.89-8.12A4.72,4.72,0,0,1,23.32,61.53Z"/><path class="cls-2" d="M117.75,57c-3.28,2.11-5.93,6.79-5.93,10.46,0,9.6,9.36,15.76,17.71,11.63,4.53-2.19,6.48-5.7,6.48-11.71,0-4.84-.08-5.07-3.51-8.43-3.28-3.35-3.67-3.51-8-3.51C121.34,55.44,119.31,55.91,117.75,57Zm6.09,5.62a6.41,6.41,0,0,1,1.24,3.12c0,1.87-2.73,4.53-4.68,4.53a5.52,5.52,0,0,1-4.68-4.68c0-2.19,2.73-4.69,5-4.69A4.25,4.25,0,0,1,123.84,62.62Z"/><path class="cls-2" d="M66.79,83.85a26,26,0,0,0-11.47,7.49c-3,3.43-3.28,3.9-1.87,5.3S54.85,98,59.14,94c9.91-9,19.12-9,30.28.08,4.29,3.51,6.79,4,6.79,1.33,0-2-6.4-7.57-11.39-10C79.51,82.83,72,82.13,66.79,83.85Z"/><path class="cls-2" d="M127,86.73a19.48,19.48,0,0,0-1.8,4.61c-2,6.79-6.55,14.43-12.33,20.76-6.47,7-17.79,13.65-25.28,14.74-3.36.47-3.75.39-5.15-1.71-2.65-3.9-3.59-6.71-4.06-12.33l-.47-5.46-4.45-.24-4.52-.23v2.49c0,3.59-2.34,11.55-4.22,14.52-.93,1.4-2.26,2.57-3,2.57-2.42,0-12.33-5-17.48-8.81-7.88-5.86-15.22-16.47-18.57-26.93-1.33-4-2.73-5.38-2.73-2.49,0,2.42,3.66,11.47,6.63,16.31a52.23,52.23,0,0,0,45.89,25.83c14.35-.08,23.87-3.59,35.5-13.19,6.48-5.39,13-15.38,16.23-24.66C128.44,88.45,128.36,84.86,127,86.73Z"/><path class="cls-2" d="M42.13,98.05a7,7,0,0,0-.54,3.28c0,2,.7,3.35,2.65,5.3C48.3,110.69,53,110.38,67,105c7.41-2.8,11.23-2.41,20.44,2.27,8.2,4.21,12.18,4.68,15.45,1.79,2.19-1.87,3.44-7.88,2-9.91-1.25-1.79-3.51,0-3.82,2.89a7,7,0,0,1-1.72,3.74c-1.4,1.33-1.87,1.18-9.91-2.8-11.47-5.62-15-5.86-25.2-1.88C52,105.77,47,105.62,45.64,100.47,45,98.13,43.3,96.88,42.13,98.05Z"/><path class="cls-2" d="M57.5,116.08c-.7,2.65,1.49,4.52,3.75,3.27,3.2-1.71,2.26-5.38-1.4-5.38C58.52,114,57.9,114.51,57.5,116.08Z"/><path class="cls-2" d="M83.49,114.44c-1.09,1.09-.55,4.13.94,4.91,2,1.1,4.21-.62,3.82-3.12a2.11,2.11,0,0,0-2.18-2.11A3.94,3.94,0,0,0,83.49,114.44Z"/></svg>