<svg id="Capa_1" data-name="Capa 1" xmlns="http://www.w3.org/2000/svg" viewBox="0 0 148.75 147.72"><defs><style>.cls-1{fill:#fff;}</style></defs><circle class="cls-1" cx="74.37" cy="73.86" r="73.86"/><path d="M110.45,74.74,75.08,39.4,39.59,74.89c7.31,7.19,14.84,14.58,22.36,22,2.5,2.48,5.08,4.9,7.43,7.52a5.85,5.85,0,0,1,1.4,3.5c.11,10.71-.08,21.41.11,32.12.14,7.84-3.76,7.88-8.79,7a71.38,71.38,0,0,1-33.52-14.88C14.55,120.91,5.44,106.5,2,88.76c-3.91-20.18-.3-39,11.26-56C24.23,16.55,39.4,6.14,58.52,2.1c21-4.43,40.57-.75,58.25,11.66,15.68,11,25.81,25.94,29.71,44.62,4.77,22.8,0,43.68-14.73,62-11.09,13.8-25.46,22.41-42.71,26.27-1.32.29-2.67.42-4,.61-4.37.63-6.08-1.13-6.14-6-.06-5.81,0-11.61,0-17.42,0-5.42-.08-10.85.06-16.28a5.35,5.35,0,0,1,1.37-3.29q13.89-14.08,28-28A13.22,13.22,0,0,1,110.45,74.74ZM22.9,75,74.51,23.39,126.2,75.07A28.82,28.82,0,0,0,123.93,77q-16.4,16.33-32.7,32.74a4.26,4.26,0,0,0-1,2.77c-.09,6.56,0,13.12,0,19.68,0,.64.08,1.28.12,1.94,25.21-5.65,50-30.48,46.83-66.08a62.09,62.09,0,0,0-58.1-56.45c-35.92-2-63.15,24.53-66.11,56.16C9.78,101.63,33,127.81,59.38,134a3.71,3.71,0,0,0,.19-.85c0-6.79,0-13.57,0-20.35a3.47,3.47,0,0,0-1-2.1c-4.11-4.2-8.27-8.35-12.43-12.5C38.35,90.43,30.58,82.68,22.9,75Z"/></svg>